<svg width="40" height="28" viewBox="0 0 40 28" fill="none" xmlns="http://www.w3.org/2000/svg">
<path d="M36.4844 0.526367H3.51562C1.57711 0.526367 0 2.10348 0 4.04199V23.9571C0 25.8956 1.57711 27.4727 3.51562 27.4727H36.4844C38.4229 27.4727 40 25.8956 40 23.9571V4.04199C40 2.10348 38.4229 0.526367 36.4844 0.526367ZM13.4672 22.9458C8.53422 22.9458 4.52094 18.9325 4.52094 13.9996C4.52094 9.0666 8.53422 5.05332 13.4672 5.05332C18.4002 5.05332 22.4134 9.0666 22.4134 13.9996C22.4134 18.9325 18.4002 22.9458 13.4672 22.9458ZM26.9423 10.6661V20.6204C26.9423 21.2675 26.4176 21.7922 25.7704 21.7922C25.1232 21.7922 24.5985 21.2675 24.5985 20.6204V10.6661C24.1775 10.4883 23.882 10.0717 23.882 9.58598C23.882 9.10027 24.1775 8.68363 24.5985 8.5059V7.6377C24.5985 6.99051 25.1232 6.46582 25.7704 6.46582C26.4176 6.46582 26.9423 6.99051 26.9423 7.6377V8.5059C27.3634 8.68363 27.6589 9.10027 27.6589 9.58598C27.6589 10.0717 27.3634 10.4883 26.9423 10.6661ZM31.197 19.1809V20.6203C31.197 21.2675 30.6723 21.7922 30.0252 21.7922C29.378 21.7922 28.8533 21.2675 28.8533 20.6203V19.1809C28.4323 19.0032 28.1366 18.5866 28.1366 18.1008C28.1366 17.6151 28.4322 17.1984 28.8533 17.0207V7.6377C28.8533 6.99051 29.378 6.46582 30.0252 6.46582C30.6723 6.46582 31.197 6.99051 31.197 7.6377V17.0208C31.6181 17.1986 31.9137 17.6152 31.9137 18.1009C31.9137 18.5866 31.6181 19.0032 31.197 19.1809ZM35.4518 10.6661V20.6204C35.4518 21.2675 34.9271 21.7922 34.2799 21.7922C33.6327 21.7922 33.108 21.2675 33.108 20.6204V10.6661C32.687 10.4884 32.3914 10.0717 32.3914 9.58598C32.3914 9.10027 32.687 8.68356 33.108 8.5059V7.6377C33.108 6.99051 33.6327 6.46582 34.2799 6.46582C34.9271 6.46582 35.4518 6.99051 35.4518 7.6377V8.5059C35.8729 8.68363 36.1684 9.10027 36.1684 9.58598C36.1684 10.0717 35.8729 10.4883 35.4518 10.6661Z" fill="#222222"/>
</svg>
